<?xml version="1.0" encoding="UTF-8" standalone="no"?>
<!-- Created with Inkscape (http://www.inkscape.org/) -->

<svg
   width="103.49313mm"
   height="45.447113mm"
   viewBox="0 0 103.49313 45.447113"
   version="1.1"
   id="svg239"
   inkscape:version="1.2.2 (732a01da63, 2022-12-09)"
   sodipodi:docname="logo.svg"
   inkscape:export-filename="logo.png"
   inkscape:export-xdpi="96"
   inkscape:export-ydpi="96"
   xmlns:inkscape="http://www.inkscape.org/namespaces/inkscape"
   xmlns:sodipodi="http://sodipodi.sourceforge.net/DTD/sodipodi-0.dtd"
   xmlns="http://www.w3.org/2000/svg"
   xmlns:svg="http://www.w3.org/2000/svg">
  <sodipodi:namedview
     id="namedview241"
     pagecolor="#ffffff"
     bordercolor="#000000"
     borderopacity="0.25"
     inkscape:showpageshadow="2"
     inkscape:pageopacity="0.0"
     inkscape:pagecheckerboard="0"
     inkscape:deskcolor="#d1d1d1"
     inkscape:document-units="mm"
     showgrid="false"
     inkscape:zoom="0.70710678"
     inkscape:cx="130.10765"
     inkscape:cy="669.63012"
     inkscape:window-width="2353"
     inkscape:window-height="1230"
     inkscape:window-x="120"
     inkscape:window-y="35"
     inkscape:window-maximized="0"
     inkscape:current-layer="layer1" />
  <defs
     id="defs236">
    <linearGradient
       id="linearGradient1334"
       inkscape:swatch="solid">
      <stop
         style="stop-color:#000000;stop-opacity:1"
         offset="0"
         id="stop1332" />
    </linearGradient>
  </defs>
  <g
     inkscape:label="Lag 1"
     inkscape:groupmode="layer"
     id="layer1"
     transform="translate(-59.56138,-107.75856)">
    <g
       id="g1172-9-6"
       inkscape:label="ikon"
       transform="translate(39.02642,-47.936354)"
       style="fill:#42a5f5"
       inkscape:export-filename="g1172-9-6.png"
       inkscape:export-xdpi="245.33"
       inkscape:export-ydpi="245.33">
      <path
         id="path2421-1-0"
         style="stroke-width:2.13425"
         d="m 97.922875,162.18832 c -7.17984,0.0935 -13.395957,4.29458 -16.530774,10.4221 1.410351,0.32795 2.714019,0.93572 3.824573,1.82108 2.496641,-4.7155 7.35891,-7.91579 12.948563,-7.91579 5.261443,0 9.878573,2.83574 12.485543,7.10137 0.28133,-0.15633 0.56953,-0.30071 0.86506,-0.43098 l 0.0103,-0.004 0.008,-0.004 c 1.03327,-0.44599 2.13427,-0.71472 3.2675,-0.81339 -0.53294,-1.00291 -1.14849,-1.95303 -1.83762,-2.84013 l 2.98897,-3.07527 c -0.94717,-1.10369 -1.89537,-2.09723 -2.96881,-3.04943 l -2.98845,3.11558 c -3.26245,-2.72675 -7.36807,-4.32739 -11.830286,-4.32739 -0.08148,0 -0.160852,-8.4e-4 -0.242362,0 z m 10.366295,30.48083 c -2.64026,2.56761 -6.20309,4.14238 -10.123933,4.14238 -3.631903,0 -6.956016,-1.3515 -9.524266,-3.59144 -1.522045,1.03766 -2.664132,1.54994 -4.166371,1.90369 3.448381,3.70813 8.306738,6.01824 13.690637,6.01824 5.450093,0 10.335133,-2.34009 13.779523,-6.08955 -0.15979,-0.0594 -0.31777,-0.12206 -0.47439,-0.18966 l -0.008,-0.004 -0.0103,-0.002 c -1.18375,-0.52181 -2.25678,-1.26141 -3.16311,-2.18746 z"
         sodipodi:nodetypes="sccscccccccccsssscccccccccs" />
      <path
         id="path2845-4-3"
         style="stroke-width:2.13425"
         d="m 91.850237,155.69491 v 4.32718 h 12.629613 v -4.32718 z" />
    </g>
    <g
       aria-label="time4o"
       transform="matrix(0.98251757,0,0,1.0177935,-14.218739,-91.673447)"
       id="text7484-2-4-9"
       style="font-weight:500;font-size:32.4706px;font-family:Ubuntu;-inkscape-font-specification:'Ubuntu Medium';fill:#1976d2;stroke-width:5.8;paint-order:markers stroke fill"
       inkscape:label="time4o">
      <path
         d="m 75.092927,210.98228 4.838119,-0.7793 v 5.03294 h 5.812238 v 4.02636 h -5.812238 v 6.00706 q 0,1.52612 0.51953,2.43529 0.552,0.90918 2.17553,0.90918 0.779295,0 1.59106,-0.12988 0.844235,-0.16235 1.526118,-0.42212 l 0.681882,3.76659 q -0.876706,0.35718 -1.948236,0.61694 -1.071529,0.25977 -2.630118,0.25977 -1.980707,0 -3.279531,-0.51953 -1.298824,-0.552 -2.078118,-1.49365 -0.779295,-0.97412 -1.104001,-2.33788 -0.292235,-1.36377 -0.292235,-3.01977 z"
         style="-inkscape-font-specification:'Ubuntu Bold'"
         id="path3588" />
      <path
         d="m 94.510353,232.31546 h -4.838119 v -17.07954 h 4.838119 z m 0.454589,-22.01507 q 0,1.3313 -0.876706,2.11059 -0.844236,0.74683 -2.013178,0.74683 -1.168941,0 -2.045647,-0.74683 -0.844236,-0.77929 -0.844236,-2.11059 0,-1.33129 0.844236,-2.07812 0.876706,-0.77929 2.045647,-0.77929 1.168942,0 2.013178,0.77929 0.876706,0.74683 0.876706,2.07812 z"
         style="-inkscape-font-specification:'Ubuntu Bold'"
         id="path3590" />
      <path
         d="m 108.44023,223.25616 q 0,-2.33788 -0.61694,-3.312 -0.58448,-0.97412 -2.04565,-0.97412 -0.45459,0 -0.94165,0.0649 -0.48706,0.0325 -0.94165,0.0974 v 13.18306 h -4.838117 v -16.495 q 0.616942,-0.16236 1.428707,-0.32471 0.84424,-0.19482 1.75341,-0.32471 0.94165,-0.16235 1.91577,-0.22729 0.97412,-0.0974 1.91576,-0.0974 1.85083,0 2.9873,0.48706 1.16894,0.45458 1.91576,1.104 1.03906,-0.74683 2.37036,-1.16894 1.36376,-0.42212 2.50023,-0.42212 2.04565,0 3.34448,0.58447 1.33129,0.552 2.11058,1.59106 0.7793,1.03906 1.07153,2.46776 0.29224,1.42871 0.29224,3.18212 v 9.64377 h -4.83812 v -9.0593 q 0,-2.33788 -0.61694,-3.312 -0.58447,-0.97412 -2.04565,-0.97412 -0.38965,0 -1.104,0.19483 -0.68188,0.19482 -1.13647,0.48706 0.22729,0.74682 0.29223,1.59106 0.065,0.81176 0.065,1.75341 v 9.31906 h -4.83812 z"
         style="-inkscape-font-specification:'Ubuntu Bold'"
         id="path3592" />
      <path
         style="color:#000000;-inkscape-font-specification:'Ubuntu Bold';stroke-width:5;-inkscape-stroke:none"
         d="m 126.2341,223.90557 q 0,-2.27294 0.68188,-3.96141 0.71436,-1.72094 1.85083,-2.85741 1.13647,-1.13647 2.59764,-1.72094 1.49365,-0.58447 3.05224,-0.58447 3.63671,0 5.7473,2.24047 2.11059,2.208 2.11059,6.52659 0,0.42212 -0.0325,0.94165 -0.0325,0.48705 -0.065,0.8767 H 131.2021 q 0.16235,1.49365 1.39624,2.37036 1.23388,0.8767 3.312,0.8767 1.33129,0 2.59765,-0.22729 1.29882,-0.25977 2.11059,-0.61694 l 0.64941,3.92894 q -0.38965,0.19482 -1.03906,0.38965 -0.64941,0.19482 -1.46118,0.3247 -0.77929,0.16236 -1.68847,0.25977 -0.90918,0.0974 -1.81835,0.0974 -2.30542,0 -4.02636,-0.68188 -1.68847,-0.68189 -2.82494,-1.85083 -1.104,-1.20141 -1.656,-2.82494 -0.51953,-1.62353 -0.51953,-3.50683 z m 11.36471,-1.85082 q -0.0325,-0.61694 -0.22729,-1.20141 -0.16236,-0.58447 -0.552,-1.03906 -0.35718,-0.45459 -0.94165,-0.74682 -0.552,-0.29224 -1.39624,-0.29224 -0.81176,0 -1.39623,0.29224 -0.58447,0.25976 -0.97412,0.71435 -0.38965,0.45459 -0.61694,1.07153 -0.19483,0.58447 -0.29224,1.20141 z"
         id="path1836" />
      <path
         style="color:#000000;-inkscape-font-specification:'Ubuntu Bold';stroke-width:5;-inkscape-stroke:none"
         d="m 180.42755,223.74322 q 0,2.01318 -0.58447,3.70165 -0.58447,1.656 -1.68848,2.85741 -1.104,1.16894 -2.66258,1.81836 -1.52612,0.64941 -3.44189,0.64941 -1.88329,0 -3.44188,-0.64941 -1.52612,-0.64942 -2.63012,-1.81836 -1.104,-1.20141 -1.72094,-2.85741 -0.61694,-1.68847 -0.61694,-3.70165 0,-2.01318 0.61694,-3.66918 0.64941,-1.656 1.75341,-2.82494 1.13647,-1.16894 2.66259,-1.81835 1.55859,-0.64941 3.37694,-0.64941 1.85083,0 3.37694,0.64941 1.55859,0.64941 2.66259,1.81835 1.104,1.16894 1.72095,2.82494 0.61694,1.656 0.61694,3.66918 z m -4.93553,0 q 0,-2.24047 -0.90918,-3.50682 -0.87671,-1.29883 -2.53271,-1.29883 -1.656,0 -2.56518,1.29883 -0.90917,1.26635 -0.90917,3.50682 0,2.24047 0.90917,3.57177 0.90918,1.29882 2.56518,1.29882 1.656,0 2.53271,-1.29882 0.90918,-1.3313 0.90918,-3.57177 z"
         id="path1829" />
      <path
         d="m 154.09386,215.72298 q -1.26635,1.656 -2.69506,3.60424 -1.4287,1.94824 -2.40282,3.99388 h 5.09788 z m 4.74071,-5.90965 v 13.50777 h 2.40282 v 3.96142 h -2.40282 v 5.03294 h -4.74071 v -5.03294 h -9.70871 v -3.5393 q 0.71436,-1.4287 1.78589,-3.21459 1.07153,-1.81835 2.37035,-3.70165 1.33129,-1.91576 2.79247,-3.73412 1.46118,-1.81835 2.92236,-3.27953 z"
         style="-inkscape-font-specification:'Ubuntu Bold'"
         id="path3596" />
    </g>
  </g>
</svg>
